<?xml version="1.0" encoding="UTF-8" standalone="no"?>
<!-- Created with Inkscape (http://www.inkscape.org/) -->
<svg
   xmlns:dc="http://purl.org/dc/elements/1.1/"
   xmlns:cc="http://creativecommons.org/ns#"
   xmlns:rdf="http://www.w3.org/1999/02/22-rdf-syntax-ns#"
   xmlns:svg="http://www.w3.org/2000/svg"
   xmlns="http://www.w3.org/2000/svg"
   xmlns:sodipodi="http://sodipodi.sourceforge.net/DTD/sodipodi-0.dtd"
   xmlns:inkscape="http://www.inkscape.org/namespaces/inkscape"
   width="404"
   height="154"
   id="svg2858"
   sodipodi:version="0.32"
   inkscape:version="0.46"
   version="1.0"
   sodipodi:docname="École nationale de l'aviation civile.svg"
   inkscape:output_extension="org.inkscape.output.svg.inkscape">
  <defs
     id="defs2860">
    <clipPath
       clipPathUnits="userSpaceOnUse"
       id="clipPath93">
      <path
         d="M 250.598,114.536 L 604.929,114.536 L 604.929,270.441 L 250.598,270.441 L 250.598,114.536 z"
         id="path95" />
    </clipPath>
    <inkscape:perspective
       sodipodi:type="inkscape:persp3d"
       inkscape:vp_x="0 : 526.18109 : 1"
       inkscape:vp_y="0 : 1000 : 0"
       inkscape:vp_z="744.09448 : 526.18109 : 1"
       inkscape:persp3d-origin="372.04724 : 350.78739 : 1"
       id="perspective2866" />
  </defs>
  <sodipodi:namedview
     id="base"
     pagecolor="#ffffff"
     bordercolor="#666666"
     borderopacity="1.0"
     inkscape:pageopacity="0.0"
     inkscape:pageshadow="2"
     inkscape:zoom="2.2970297"
     inkscape:cx="202"
     inkscape:cy="77"
     inkscape:document-units="px"
     inkscape:current-layer="layer1"
     showgrid="false"
     inkscape:window-width="1024"
     inkscape:window-height="712"
     inkscape:window-x="-4"
     inkscape:window-y="-4" />
  <metadata
     id="metadata2863">
    <rdf:RDF>
      <cc:Work
         rdf:about="">
        <dc:format>image/svg+xml</dc:format>
        <dc:type
           rdf:resource="http://purl.org/dc/dcmitype/StillImage" />
      </cc:Work>
    </rdf:RDF>
  </metadata>
  <g
     inkscape:label="Calque 1"
     inkscape:groupmode="layer"
     id="layer1"
     transform="translate(-127.06706,-398.52805)">
    <g
       transform="matrix(1.25,0,0,-1.25,-206.13132,715.8276)"
       id="g89"
       style="fill:#000080;fill-opacity:1">
      <g
         id="g91"
         clip-path="url(#clipPath93)"
         style="fill:#000080;fill-opacity:1">
        <g
           id="g97"
           transform="translate(301.6057,173.2385)"
           style="fill:#000080;fill-opacity:1">
          <path
             d="M 0,0 C -6.258,-11.746 -11.815,-23.868 -17.985,-35.388 C -19.826,-30.05 -21.03,-24.43 -22.563,-18.84 C -23.572,-19.821 -24.398,-21.554 -25.066,-22.612 C -26.809,-17.153 -26.892,-12.857 -27.901,-6.996 C -28.732,-7.52 -29.553,-8.151 -30.377,-8.78 C -31.279,-4.013 -29.264,0.264 -28.998,4.372 C -34.467,2.742 -29.135,9.213 -27.796,11.329 C -27.114,12.277 -27.23,13.481 -28.816,12.776 C -28.457,15.898 -25.05,18.324 -23.413,20.798 C -24.154,21.609 -24.661,20.016 -25.294,20.837 C -24.234,23.587 -21.832,26.137 -20.186,28.502 C -20.558,28.908 -21.191,28.627 -21.551,28.921 C -20.123,31.267 -17.698,33.597 -15.572,35.567 C -15.954,36.083 -16.774,35.451 -16.739,36.227 C -14.635,38.416 -12.439,40.836 -10.542,42.895 C -11.003,43.072 -11.492,43.576 -12.128,43.294 C -11.102,45.268 -9.097,47.337 -7.386,49.047 C -10.638,50.721 -2.686,52.923 -7.15,54.587 C -15.639,48.803 -23.28,41.112 -31.369,34.592 C -31.733,36.102 -31.835,38.3 -31.677,40.081 C -32.339,41.229 -32.945,39.515 -33.732,39.662 C -34.077,40.951 -33.635,42.098 -33.533,43.321 C -33.18,44.239 -33.435,46.862 -35.047,45.271 C -34.69,47.292 -33.23,49.308 -32.962,51.1 C -33.397,51.058 -33.834,51.015 -34.274,50.973 C -33.818,53.114 -31.65,54.647 -31.194,56.788 C -31.466,57.312 -32.398,56.672 -32.559,57.208 C -31.512,60.066 -23.005,64.531 -31.355,64.165 C -24.454,65.823 -17.771,67.463 -10.402,68.837 C 1.751,72.108 13.912,75.267 25.696,78.945 C 37.472,81.516 49.313,80.013 61.064,80.597 C 61.809,80.644 64.013,80.302 64.552,78.986 C 66.334,74.225 72.792,77.978 76.013,74.317 C 77.822,72.725 78.501,70.253 78.395,67.926 C 73.213,70.185 67.097,68.381 61.566,67.403 C 85.736,57.051 111.137,48.802 135.307,38.45 C 130.645,36.455 125.582,35.193 120.006,34.652 C 121.437,33.578 123.638,32.468 124.061,31.516 C 118.972,29.37 112.484,30.285 107.248,29.671 C 108.443,27.579 110.923,27.048 111.689,24.802 C 106.979,24.459 102.036,26.517 97.756,27.43 C 97.83,26.663 98.428,26.169 98.72,25.424 C 95.65,25.239 93.086,26.648 90.268,27.256 L 88.096,28.017 C 84.695,30.14 85.633,29.568 84.695,30.14 C 85.702,27.698 82.875,28.419 81.708,29.078 C 79.342,30.727 76.888,32.144 74.62,33.91 C 75.02,32.073 72.789,32.298 71.722,33.078 C 69.617,34.308 67.614,36.764 65.442,37.549 C 65.527,33.251 61.672,37.736 59.85,38.331 C 58.934,38.684 56.627,41.992 56.933,38.821 C 54.677,40.478 53.067,42.309 51.126,44.109 C 50.232,40.822 46.326,45.85 44.533,46.118 C 45.069,42.861 42.576,45.82 41.671,46.064 C 40.241,47.14 39.012,48.455 37.615,49.202 C 37.658,48.765 37.242,48.505 37.502,48.088 C 35.098,47.856 32.876,50.289 30.309,50.593 C 29.087,41.538 38.764,43.025 43.584,39.959 C 45.121,38.895 47.574,37.476 47.1,35.556 C 45.537,35.735 44.308,37.051 42.723,37.447 C 39.141,37.985 34.573,38.428 31.103,36.657 C 30.354,37.577 31.122,38.756 31.923,39.604 C 32.36,39.647 31.051,40.624 30.506,40.57 C 29.272,40.784 27.861,40.538 26.551,40.41 C 25.562,42.632 24.574,44.855 23.489,46.954 C 23.401,46.725 22.975,46.574 23.125,46.147 C 24.825,41.125 23.773,33.743 29.296,31.407 C 33.346,30.583 38.029,28.94 40.199,24.738 C 40.102,24.617 39.904,24.378 39.805,24.257 C 34.964,27.541 28.066,26.985 22.968,24.948 C 23.344,26.747 24.811,27.554 26.16,28.457 C 26.607,28.391 27.023,28.651 27.449,28.801 C 24.928,29.772 22.662,31.538 19.565,30.465 C 18.314,32.002 19.273,34.631 17.912,36.155 C 12.368,25.027 6.822,13.9 1.277,2.772 L 0,0 z M 34.115,74.02 C 34.861,71.996 37.417,71.801 38.85,71.83 C 46.305,72.329 52.805,74.722 59.324,76.898 C 60.647,76.915 61.647,75.687 63.06,75.934 C 62.681,77.552 60.952,78.02 59.763,78.042 C 50.476,78.25 41.535,77.165 32.422,77.829 C 32.679,76.31 33.55,75.29 34.115,74.02 z M 16.717,73.664 C 19.307,74.245 23.691,74.557 26.897,75.641 C 27.301,76.01 27.261,76.447 27.556,76.807 C 24.164,75.375 19.565,76.144 16.717,73.664 z M 5.503,27.563 C 4.991,24.868 4.147,21.033 6.348,18.817 C 15.574,36.37 23.557,54.244 32.795,71.687 C 31.97,73.371 31.738,75.777 30.232,76.514 C 22.1,60.172 13.633,43.906 5.503,27.563 z M 12.12,68.695 C 12.143,68.477 12.151,68.368 12.175,68.149 C 15.948,69.064 20.919,68.993 23.927,69.837 C 24.497,70.775 25.672,72.322 24.747,72.785 C 20.317,71.805 14.646,72.249 12.12,68.695 z M -7.105,67.831 C -7.794,64.674 -7.969,60.795 -6.669,57.612 C -4.021,55.33 -2.257,59.913 -0.036,60.901 C -1.993,60.602 -0.871,62.696 -0.018,62.998 C 0.414,64.255 5.709,66.529 0.988,66.295 C 1.966,67.605 3.796,69.215 3.81,70.21 C 0.384,69.106 -3.571,68.943 -7.105,67.831 z M 56.647,73.77 C 57.771,73.548 60.318,73.462 60.342,74.347 C 58.97,72.558 57.945,76.323 56.647,73.77 z M -22.896,64.542 C -23.129,63.525 -24.498,62.84 -24.282,61.757 C -19.317,62.899 -14.603,64.348 -10.147,66.215 C -10.181,66.541 -10.103,66.878 -10.452,67.067 C -14.421,65.91 -18.924,65.696 -22.896,64.542 z M 34.58,69.211 C 33.306,67.543 32.492,65.698 32.026,63.667 C 46.098,66.461 61.044,71.657 76.012,70.894 C 71.997,75.915 63.925,73.812 58.434,72.396 C 57.253,72.062 56.325,72.524 55.386,73.096 C 48.576,71.664 42.237,68.736 34.58,69.211 z M 9.271,62.794 C 9.279,62.684 9.302,62.464 9.314,62.355 C 13.633,63.325 21.393,60.654 22.483,66.497 C 18.616,66.566 11.142,67.388 9.271,62.794 z M -25.601,59.424 C -25.768,58.857 -26.261,58.257 -26.196,57.601 C -20.947,59.212 -15.444,60.516 -10.237,62.564 C -9.822,62.825 -10.213,63.447 -10.144,63.896 C -15.426,62.615 -20.457,61.024 -25.601,59.424 z M -27.499,53.944 C -27.457,53.506 -27.164,52.764 -27.571,52.393 C -21.705,54.503 -15.294,56.668 -9.765,59.962 C -9.676,60.191 -9.906,60.278 -10.036,60.486 C -15.901,58.375 -22.188,57.215 -27.499,53.944 z M 49.317,65.116 C 57.82,61.637 66.327,56.941 75.877,56.319 C 77.09,56.326 78.052,56.64 78.972,57.391 C 78.952,57.609 78.941,57.718 78.919,57.938 C 71.445,61.076 63.813,63.539 56.371,66.35 C 53.998,65.79 51.842,65.251 49.317,65.116 z M 43.999,63.06 C 44.892,58.401 42.519,50.999 47.944,49.649 C 48.382,49.692 48.817,49.734 49.255,49.774 C 49.771,53.578 48.79,58.007 48.501,62.169 C 47.036,62.469 44.628,64.555 43.999,63.06 z M 36.896,62.372 C 36.721,59.596 37.049,56.21 37.708,53.956 C 39.214,53.218 40.642,52.143 42.566,52.77 C 42.677,56.202 42.11,59.787 41.773,63.285 C 40.002,63.333 38.524,62.64 36.896,62.372 z M 6.336,57.764 C 6.357,57.547 6.389,57.217 6.41,57 C 10.148,57.141 14.136,56.973 17.723,57.541 C 18.174,58.577 19.192,59.448 19.076,60.651 C 15.095,59.606 9.111,61.013 6.336,57.764 z M -27.483,49.201 C -28.303,48.572 -27.752,47.412 -27.776,46.525 C -21.755,49.314 -15.785,53.753 -9.729,57.317 C -9.084,57.488 -9.959,57.404 -10.111,57.83 C -16.031,55.164 -21.691,52.079 -27.483,49.201 z M 31.473,55.669 C 32.324,54.87 33.537,54.877 34.661,54.655 C 35.336,56.816 34.841,59.636 34.303,61.791 C 29.388,62.419 32.206,58.388 31.473,55.669 z M -27.576,41.029 C -21.156,45.4 -14.9,50.307 -9.352,55.696 C -15.475,51.685 -21.596,47.674 -27.828,43.652 C -28.083,42.855 -27.967,41.653 -27.576,41.029 z M 55.081,46.586 C 55.409,46.618 55.737,46.651 56.173,46.693 C 55.98,50.976 55.906,55.162 54.578,59.777 C 53.245,59.871 52.123,61.195 50.791,61.288 C 51.944,56.214 48.486,48.598 55.081,46.586 z M 3.127,52.16 C 3.158,51.831 3.189,51.505 3.221,51.176 C 6.736,50.192 10.739,51.02 14.388,50.93 C 14.928,52.198 16.035,53.296 16.116,54.738 C 12.443,53.942 5.949,56.073 3.127,52.16 z M 58.566,45.93 C 59.973,45.075 61.301,43.877 63.039,44.155 C 62.518,48.409 62.391,53.142 61.485,56.806 C 60.209,57.454 58.922,58.212 57.381,58.174 C 57.772,54.128 58.173,49.974 58.566,45.93 z M 64.017,55.724 C 66.196,50.308 61.978,40.301 71.005,40.512 C 70.8,44.907 69.799,49.554 69.148,54.015 C 67.532,54.741 65.808,55.456 64.017,55.724 z M 82.234,55.61 C 93.383,49.846 104.345,43.735 115.472,38.188 C 118.794,38.067 121.552,39.216 124.31,40.365 C 110.548,45.766 96.177,51.771 82.182,56.157 C 82.201,55.937 82.224,55.719 82.234,55.61 z M -0.394,45.2 C 3.639,45.699 7.473,44.855 11.508,45.357 C 11.62,46.471 14.413,48.396 11.429,48.437 C 6.958,47.896 2.071,50.513 -0.447,45.745 C -0.425,45.526 -0.415,45.418 -0.394,45.2 z M 74.082,39.485 C 75.631,38.311 84.035,32.393 79.58,39.686 C 78.042,44.171 76.624,48.558 75.089,53.042 C 74.084,53.167 72.959,53.388 71.845,53.501 C 71.863,48.758 73.617,44.296 74.082,39.485 z M 102.02,34.681 C 104.988,33.643 108.871,34.572 111.478,36.146 C 111.935,35.971 111.653,36.604 111.424,36.693 C 101.378,42.453 91.301,48.543 81.429,53.656 C 87.899,47.218 95.013,40.955 102.02,34.681 z M 93.624,33.65 C 95.676,32.965 97.805,32.619 100.112,32.733 C 93.927,39.637 86.453,46.198 79.863,52.733 C 83.908,46.283 89.044,39.938 93.624,33.65 z M 83.729,35.562 C 85.933,34.451 88.158,33.12 90.803,33.158 C 86.541,39.585 82.279,46.014 77.601,52.183 C 79.253,46.494 81.649,41.098 83.729,35.562 z M -3.896,40.336 C -3.864,40.009 -3.833,39.68 -3.801,39.353 C 0.187,39.188 4.186,38.912 8.35,39.204 C 8.923,40.142 9.493,41.077 9.955,42.008 C 5.66,41.921 -0.722,45.167 -3.896,40.336 z M -8.488,33.053 C -8.437,32.507 -8.384,31.959 -8.341,31.522 C -2.798,32.388 -0.288,31.528 4.995,32.811 C 6.026,33.571 7.225,36.005 5.979,36.328 C 0.971,35.623 -5.467,38.311 -8.488,33.053 z M -13.941,23.258 C -13.999,22.701 -13.176,23.332 -13.014,22.797 C -7.854,24.176 -2.33,25.262 2.692,26.962 C 2.816,27.967 4.219,29.425 3.171,29.987 C -2.865,28.521 -12.374,31.023 -13.941,23.258 z M -14.927,19.744 C -16.876,18.232 -18.861,15.943 -19.068,13.497 C -11.934,16.17 -4.952,19.273 2.054,22.154 C 1.759,22.9 2.602,23.313 2.201,24.046 C -3.519,22.72 -9.348,21.384 -14.927,19.744 z M -19.722,10.011 C -21.58,7.515 -22.986,4.952 -22.461,1.802 C -14.282,7.339 -5.166,13.514 2.254,20.079 C -5.034,16.727 -12.436,13.365 -19.722,10.011 z M -21.082,-1.042 C -22.225,-2.918 -21.698,-4.964 -20.753,-6.748 C -20.742,-6.856 -20.622,-6.957 -20.502,-7.054 C -11.943,0.283 -4.437,9.39 3.632,17.234 C 3.6,17.561 3.676,17.9 3.328,18.086 C -5.15,12.192 -12.844,5.05 -21.082,-1.042 z M -17.876,-9.119 C -19.011,-12.208 -17.306,-15.022 -15.334,-17.147 C -14.289,-17.708 -12.992,-19.679 -12.037,-18.154 C -6.055,-6.983 -0.641,4.354 4.543,15.778 C -3.197,7.966 -10.395,-0.893 -17.876,-9.119"
             style="fill:#000080;fill-opacity:1;fill-rule:nonzero;stroke:none"
             id="path99" />
        </g>
        <g
           id="g101"
           transform="translate(314.685,195.0231)"
           style="fill:#000080;fill-opacity:1">
          <path
             d="M 0,0 C 0,0.697 0.322,1.02 1.075,1.02 L 19.929,1.02 C 20.894,1.02 20.947,0.535 20.947,-0.11 L 20.734,-3.547 C 20.68,-4.243 20.412,-4.618 19.607,-4.618 L 7.252,-4.618 L 6.822,-12.57 L 16.274,-12.57 C 17.19,-12.57 17.294,-13 17.294,-13.59 L 17.081,-17.189 C 17.081,-17.889 16.759,-18.209 16.007,-18.209 L 6.5,-18.209 L 6.018,-28.255 L 18.37,-28.255 C 19.284,-28.255 19.391,-28.577 19.391,-29.275 L 19.23,-32.873 C 19.23,-33.519 18.854,-33.894 18.101,-33.894 L -0.752,-33.894 C -1.664,-33.894 -1.719,-33.411 -1.719,-32.873"
             style="fill:#000080;fill-opacity:1;fill-rule:nonzero;stroke:none"
             id="path103" />
        </g>
        <g
           id="g105"
           transform="translate(338.0499,194.9129)"
           style="fill:#000080;fill-opacity:1">
          <path
             d="M 0,0 C 0,0.701 0.376,1.13 1.13,1.13 L 8.381,1.13 C 8.863,1.13 9.402,0.701 9.616,0.214 L 18.748,-19.659 C 19.499,-21.379 20.627,-23.74 21.11,-25.833 L 21.217,-25.833 L 22.562,-0.051 C 22.562,0.754 22.885,1.13 23.743,1.13 L 27.93,1.13 C 28.954,1.13 29.007,0.701 29.007,0 L 27.286,-32.763 C 27.286,-33.409 26.967,-33.784 26.106,-33.784 L 18.802,-33.784 C 18.264,-33.784 17.726,-33.301 17.513,-32.815 L 8.487,-12.513 C 7.199,-9.829 6.499,-8.054 6.124,-6.285 L 6.018,-6.285 L 4.727,-32.763 C 4.727,-33.409 4.352,-33.784 3.708,-33.784 L -0.75,-33.784 C -1.664,-33.784 -1.718,-33.301 -1.718,-32.763"
             style="fill:#000080;fill-opacity:1;fill-rule:nonzero;stroke:none"
             id="path107" />
        </g>
        <g
           id="g109"
           transform="translate(382.7956,185.3551)"
           style="fill:#000080;fill-opacity:1">
          <path
             d="M 0,0 C 0.75,2.201 1.287,3.76 1.718,5.585 L 1.826,5.585 C 1.985,3.113 2.631,-0.216 3.382,-4.785 L 4.134,-9.401 L -3.438,-9.401 L 0,0 z M -15.042,-21.971 C -15.257,-22.453 -15.58,-23.044 -15.58,-23.528 C -15.58,-23.957 -15.147,-24.226 -14.719,-24.226 L -9.348,-24.226 C -8.863,-24.226 -8.542,-23.904 -8.434,-23.581 L -5.21,-14.771 L 4.994,-14.771 L 6.82,-23.528 C 6.876,-23.904 6.876,-24.226 7.626,-24.226 L 14.02,-24.226 C 14.664,-24.226 15.038,-24.013 15.038,-23.581 C 15.038,-23.205 14.823,-22.565 14.718,-22.077 L 7.036,8.913 C 6.659,10.417 6.284,10.688 4.832,10.688 L -0.431,10.688 C -1.611,10.688 -1.987,10.311 -2.525,8.968"
             style="fill:#000080;fill-opacity:1;fill-rule:nonzero;stroke:none"
             id="path111" />
        </g>
        <g
           id="g113"
           transform="translate(417.9776,196.5776)"
           style="fill:#000080;fill-opacity:1">
          <path
             d="M 0,0 C -10.206,0 -19.121,-6.712 -19.121,-18.743 C -19.121,-30.291 -13.215,-35.987 -2.578,-35.987 C 2.094,-35.987 6.607,-35.126 6.607,-33.355 L 6.822,-28.841 C 6.822,-28.467 6.607,-28.034 6.178,-28.034 C 5.477,-28.034 2.846,-29.81 -1.613,-29.81 C -7.52,-29.81 -11.065,-26.265 -11.065,-18.853 C -11.065,-11.545 -6.878,-5.906 0,-5.906 C 0.645,-5.906 1.218,-5.953 1.76,-6.019 L 1.76,-0.056 C 1.157,-0.019 0.561,0 0,0"
             style="fill:#000080;fill-opacity:1;fill-rule:nonzero;stroke:none"
             id="path115" />
        </g>
        <g
           id="g117"
           transform="translate(314.3973,143.4407)"
           style="fill:#000080;fill-opacity:1">
          <path
             d="M 0,0 C 0,0.25 0.115,0.365 0.384,0.365 L 7.123,0.365 C 7.469,0.365 7.488,0.192 7.488,-0.038 L 7.411,-1.267 C 7.392,-1.517 7.296,-1.651 7.008,-1.651 L 2.592,-1.651 L 2.438,-4.492 L 5.818,-4.492 C 6.144,-4.492 6.182,-4.646 6.182,-4.857 L 6.106,-6.144 C 6.106,-6.393 5.99,-6.509 5.722,-6.509 L 2.323,-6.509 L 2.15,-10.099 L 6.566,-10.099 C 6.893,-10.099 6.931,-10.214 6.931,-10.464 L 6.873,-11.75 C 6.873,-11.981 6.739,-12.115 6.47,-12.115 L -0.269,-12.115 C -0.595,-12.115 -0.614,-11.942 -0.614,-11.75"
             style="fill:#000080;fill-opacity:1;fill-rule:nonzero;stroke:none"
             id="path119" />
        </g>
        <g
           id="g121"
           transform="translate(329.9024,131.9106)"
           style="fill:#000080;fill-opacity:1">
          <path
             d="M 0,0 C 0,-0.494 -1.26,-0.735 -2.565,-0.735 C -5.535,-0.735 -7.185,0.855 -7.185,4.081 C -7.185,7.44 -4.695,9.315 -1.845,9.315 C -0.87,9.315 0.45,9.12 0.45,8.685 L 0.39,7.485 C 0.39,7.35 0.345,7.185 0.225,7.185 C -0.15,7.185 -0.645,7.665 -1.845,7.665 C -3.765,7.665 -4.935,6.09 -4.935,4.05 C -4.935,1.98 -3.945,0.99 -2.295,0.99 C -1.05,0.99 -0.315,1.485 -0.12,1.485 C 0,1.485 0.06,1.365 0.06,1.26"
             style="fill:#000080;fill-opacity:1;fill-rule:nonzero;stroke:none"
             id="path123" />
        </g>
        <g
           id="g125"
           transform="translate(333.3375,135.7057)"
           style="fill:#000080;fill-opacity:1">
          <path
             d="M 0,0 C 0,2.76 0.945,4.02 2.28,4.02 C 3.585,4.02 4.095,2.865 4.095,1.005 C 4.095,-1.74 3.135,-3.03 1.815,-3.03 C 0.48,-3.03 0,-1.815 0,0 z M 1.68,-4.53 C 4.17,-4.53 6.345,-2.895 6.345,1.05 C 6.345,4.155 4.755,5.52 2.385,5.52 C -0.06,5.52 -2.25,3.81 -2.25,-0.135 C -2.25,-3.18 -0.72,-4.53 1.68,-4.53"
             style="fill:#000080;fill-opacity:1;fill-rule:nonzero;stroke:none"
             id="path127" />
        </g>
        <g
           id="g129"
           transform="translate(341.6622,140.7606)"
           style="fill:#000080;fill-opacity:1">
          <path
             d="M 0,0 C 0,0.21 0.09,0.315 0.3,0.315 L 1.875,0.315 C 2.085,0.315 2.1,0.195 2.1,0.031 L 1.68,-7.86 L 5.235,-7.86 C 5.505,-7.86 5.52,-7.98 5.52,-8.145 L 5.46,-9.15 C 5.46,-9.33 5.355,-9.435 5.145,-9.435 L -0.21,-9.435 C -0.465,-9.435 -0.48,-9.3 -0.48,-9.15"
             style="fill:#000080;fill-opacity:1;fill-rule:nonzero;stroke:none"
             id="path131" />
        </g>
        <g
           id="g133"
           transform="translate(348.9823,140.7911)"
           style="fill:#000080;fill-opacity:1">
          <path
             d="M 0,0 C 0,0.194 0.09,0.285 0.3,0.285 L 5.565,0.285 C 5.835,0.285 5.85,0.15 5.85,-0.031 L 5.79,-0.99 C 5.775,-1.185 5.7,-1.29 5.475,-1.29 L 2.025,-1.29 L 1.905,-3.51 L 4.545,-3.51 C 4.8,-3.51 4.83,-3.631 4.83,-3.795 L 4.77,-4.8 C 4.77,-4.995 4.68,-5.085 4.47,-5.085 L 1.815,-5.085 L 1.68,-7.89 L 5.13,-7.89 C 5.385,-7.89 5.415,-7.981 5.415,-8.175 L 5.37,-9.181 C 5.37,-9.36 5.265,-9.465 5.055,-9.465 L -0.21,-9.465 C -0.465,-9.465 -0.48,-9.331 -0.48,-9.181"
             style="fill:#000080;fill-opacity:1;fill-rule:nonzero;stroke:none"
             id="path135" />
        </g>
        <g
           id="g137"
           transform="translate(361.2302,143.4026)"
           style="fill:#000080;fill-opacity:1">
          <path
             d="M 0,0 C 0,0.25 0.134,0.403 0.403,0.403 L 2.995,0.403 C 3.168,0.403 3.36,0.25 3.437,0.077 L 6.701,-7.027 C 6.969,-7.642 7.373,-8.486 7.545,-9.235 L 7.584,-9.235 L 8.064,-0.019 C 8.064,0.269 8.179,0.403 8.486,0.403 L 9.984,0.403 C 10.349,0.403 10.368,0.25 10.368,0 L 9.753,-11.712 C 9.753,-11.943 9.638,-12.077 9.331,-12.077 L 6.72,-12.077 C 6.528,-12.077 6.336,-11.904 6.259,-11.731 L 3.033,-4.474 C 2.573,-3.514 2.323,-2.88 2.189,-2.247 L 2.15,-2.247 L 1.689,-11.712 C 1.689,-11.943 1.555,-12.077 1.325,-12.077 L -0.269,-12.077 C -0.595,-12.077 -0.615,-11.904 -0.615,-11.712"
             style="fill:#000080;fill-opacity:1;fill-rule:nonzero;stroke:none"
             id="path139" />
        </g>
        <g
           id="g141"
           transform="translate(377.1035,138.0911)"
           style="fill:#000080;fill-opacity:1">
          <path
             d="M 0,0 C 0.21,0.615 0.36,1.05 0.48,1.56 L 0.51,1.56 C 0.555,0.87 0.735,-0.06 0.945,-1.335 L 1.155,-2.625 L -0.96,-2.625 L 0,0 z M -4.2,-6.135 C -4.26,-6.27 -4.35,-6.435 -4.35,-6.57 C -4.35,-6.69 -4.23,-6.765 -4.11,-6.765 L -2.61,-6.765 C -2.475,-6.765 -2.385,-6.675 -2.355,-6.585 L -1.455,-4.125 L 1.395,-4.125 L 1.905,-6.57 C 1.92,-6.675 1.92,-6.765 2.13,-6.765 L 3.915,-6.765 C 4.095,-6.765 4.2,-6.705 4.2,-6.585 C 4.2,-6.48 4.14,-6.3 4.11,-6.165 L 1.965,2.49 C 1.86,2.91 1.755,2.985 1.35,2.985 L -0.12,2.985 C -0.45,2.985 -0.555,2.88 -0.705,2.505"
             style="fill:#000080;fill-opacity:1;fill-rule:nonzero;stroke:none"
             id="path143" />
        </g>
        <g
           id="g145"
           transform="translate(383.8837,139.5009)"
           style="fill:#000080;fill-opacity:1">
          <path
             d="M 0,0 L -2.73,0 C -2.985,0 -3,0.12 -3,0.225 L -2.94,1.29 C -2.94,1.485 -2.835,1.575 -2.655,1.575 L 5.01,1.575 C 5.28,1.575 5.295,1.455 5.295,1.29 L 5.235,0.3 C 5.235,0.105 5.13,0 4.92,0 L 2.1,0 L 1.68,-7.89 C 1.68,-8.07 1.59,-8.175 1.41,-8.175 L -0.15,-8.175 C -0.39,-8.175 -0.42,-8.055 -0.42,-7.89"
             style="fill:#000080;fill-opacity:1;fill-rule:nonzero;stroke:none"
             id="path147" />
        </g>
        <g
           id="g149"
           transform="translate(390.2438,140.7911)"
           style="fill:#000080;fill-opacity:1">
          <path
             d="M 0,0 C 0,0.194 0.09,0.285 0.285,0.285 L 1.875,0.285 C 2.1,0.285 2.1,0.165 2.1,0 L 1.62,-9.181 C 1.62,-9.36 1.545,-9.465 1.365,-9.465 L -0.225,-9.465 C -0.48,-9.465 -0.48,-9.331 -0.48,-9.181"
             style="fill:#000080;fill-opacity:1;fill-rule:nonzero;stroke:none"
             id="path151" />
        </g>
        <g
           id="g153"
           transform="translate(396.2136,135.7057)"
           style="fill:#000080;fill-opacity:1">
          <path
             d="M 0,0 C 0,2.76 0.945,4.02 2.28,4.02 C 3.585,4.02 4.095,2.865 4.095,1.005 C 4.095,-1.74 3.135,-3.03 1.815,-3.03 C 0.48,-3.03 0,-1.815 0,0 z M 1.68,-4.53 C 4.17,-4.53 6.345,-2.895 6.345,1.05 C 6.345,4.155 4.755,5.52 2.385,5.52 C -0.06,5.52 -2.25,3.81 -2.25,-0.135 C -2.25,-3.18 -0.72,-4.53 1.68,-4.53"
             style="fill:#000080;fill-opacity:1;fill-rule:nonzero;stroke:none"
             id="path155" />
        </g>
        <g
           id="g157"
           transform="translate(404.5685,140.7606)"
           style="fill:#000080;fill-opacity:1">
          <path
             d="M 0,0 C 0,0.195 0.105,0.315 0.315,0.315 L 2.34,0.315 C 2.475,0.315 2.625,0.195 2.685,0.06 L 5.235,-5.49 C 5.445,-5.969 5.76,-6.63 5.895,-7.215 L 5.925,-7.215 L 6.3,-0.015 C 6.3,0.21 6.39,0.315 6.63,0.315 L 7.8,0.315 C 8.085,0.315 8.1,0.195 8.1,0 L 7.62,-9.15 C 7.62,-9.33 7.53,-9.435 7.29,-9.435 L 5.25,-9.435 C 5.1,-9.435 4.95,-9.3 4.89,-9.165 L 2.37,-3.495 C 2.01,-2.745 1.815,-2.25 1.71,-1.755 L 1.68,-1.755 L 1.32,-9.15 C 1.32,-9.33 1.215,-9.435 1.035,-9.435 L -0.21,-9.435 C -0.465,-9.435 -0.48,-9.3 -0.48,-9.15"
             style="fill:#000080;fill-opacity:1;fill-rule:nonzero;stroke:none"
             id="path159" />
        </g>
        <g
           id="g161"
           transform="translate(418.1886,138.0911)"
           style="fill:#000080;fill-opacity:1">
          <path
             d="M 0,0 C 0.21,0.615 0.36,1.05 0.48,1.56 L 0.51,1.56 C 0.555,0.87 0.735,-0.06 0.945,-1.335 L 1.155,-2.625 L -0.96,-2.625 L 0,0 z M -4.2,-6.135 C -4.26,-6.27 -4.35,-6.435 -4.35,-6.57 C -4.35,-6.69 -4.23,-6.765 -4.11,-6.765 L -2.61,-6.765 C -2.475,-6.765 -2.385,-6.675 -2.355,-6.585 L -1.455,-4.125 L 1.395,-4.125 L 1.905,-6.57 C 1.92,-6.675 1.92,-6.765 2.13,-6.765 L 3.915,-6.765 C 4.095,-6.765 4.2,-6.705 4.2,-6.585 C 4.2,-6.48 4.14,-6.3 4.11,-6.165 L 1.965,2.49 C 1.86,2.91 1.755,2.985 1.35,2.985 L -0.12,2.985 C -0.45,2.985 -0.555,2.88 -0.705,2.505"
             style="fill:#000080;fill-opacity:1;fill-rule:nonzero;stroke:none"
             id="path163" />
        </g>
        <g
           id="g165"
           transform="translate(424.5032,140.7606)"
           style="fill:#000080;fill-opacity:1">
          <path
             d="M 0,0 C 0,0.21 0.09,0.315 0.3,0.315 L 1.875,0.315 C 2.085,0.315 2.1,0.195 2.1,0.031 L 1.68,-7.86 L 5.235,-7.86 C 5.505,-7.86 5.52,-7.98 5.52,-8.145 L 5.46,-9.15 C 5.46,-9.33 5.355,-9.435 5.145,-9.435 L -0.21,-9.435 C -0.465,-9.435 -0.48,-9.3 -0.48,-9.15"
             style="fill:#000080;fill-opacity:1;fill-rule:nonzero;stroke:none"
             id="path167" />
        </g>
        <g
           id="g169"
           transform="translate(431.8236,140.7911)"
           style="fill:#000080;fill-opacity:1">
          <path
             d="M 0,0 C 0,0.194 0.09,0.285 0.3,0.285 L 5.565,0.285 C 5.835,0.285 5.85,0.15 5.85,-0.031 L 5.79,-0.99 C 5.775,-1.185 5.7,-1.29 5.475,-1.29 L 2.025,-1.29 L 1.904,-3.51 L 4.545,-3.51 C 4.8,-3.51 4.829,-3.631 4.829,-3.795 L 4.77,-4.8 C 4.77,-4.995 4.679,-5.085 4.47,-5.085 L 1.815,-5.085 L 1.679,-7.89 L 5.129,-7.89 C 5.385,-7.89 5.415,-7.981 5.415,-8.175 L 5.37,-9.181 C 5.37,-9.36 5.265,-9.465 5.054,-9.465 L -0.21,-9.465 C -0.465,-9.465 -0.48,-9.331 -0.48,-9.181"
             style="fill:#000080;fill-opacity:1;fill-rule:nonzero;stroke:none"
             id="path171" />
        </g>
        <g
           id="g173"
           transform="translate(445.7883,139.5759)"
           style="fill:#000080;fill-opacity:1">
          <path
             d="M 0,0 L 1.17,0 C 2.895,0 3.78,-1.155 3.78,-3.105 C 3.78,-5.505 2.46,-6.75 0.66,-6.75 L -0.345,-6.75 L 0,0 z M -2.505,-7.965 C -2.505,-8.115 -2.49,-8.25 -2.235,-8.25 L 1.23,-8.25 C 3.555,-8.25 6.03,-6.45 6.03,-2.895 C 6.03,-0.135 4.44,1.5 1.335,1.5 L -1.725,1.5 C -1.935,1.5 -2.025,1.41 -2.025,1.215"
             style="fill:#000080;fill-opacity:1;fill-rule:nonzero;stroke:none"
             id="path175" />
        </g>
        <g
           id="g177"
           transform="translate(453.7834,140.7911)"
           style="fill:#000080;fill-opacity:1">
          <path
             d="M 0,0 C 0,0.194 0.09,0.285 0.3,0.285 L 5.565,0.285 C 5.835,0.285 5.85,0.15 5.85,-0.031 L 5.79,-0.99 C 5.775,-1.185 5.7,-1.29 5.475,-1.29 L 2.025,-1.29 L 1.904,-3.51 L 4.544,-3.51 C 4.8,-3.51 4.83,-3.631 4.83,-3.795 L 4.77,-4.8 C 4.77,-4.995 4.68,-5.085 4.469,-5.085 L 1.815,-5.085 L 1.679,-7.89 L 5.13,-7.89 C 5.385,-7.89 5.415,-7.981 5.415,-8.175 L 5.369,-9.181 C 5.369,-9.36 5.265,-9.465 5.055,-9.465 L -0.21,-9.465 C -0.465,-9.465 -0.48,-9.331 -0.48,-9.181"
             style="fill:#000080;fill-opacity:1;fill-rule:nonzero;stroke:none"
             id="path179" />
        </g>
        <g
           id="g181"
           transform="translate(465.648,140.7606)"
           style="fill:#000080;fill-opacity:1">
          <path
             d="M 0,0 C 0,0.21 0.09,0.315 0.3,0.315 L 1.875,0.315 C 2.085,0.315 2.1,0.195 2.1,0.031 L 1.68,-7.86 L 5.235,-7.86 C 5.505,-7.86 5.52,-7.98 5.52,-8.145 L 5.46,-9.15 C 5.46,-9.33 5.355,-9.435 5.145,-9.435 L -0.21,-9.435 C -0.465,-9.435 -0.48,-9.3 -0.48,-9.15"
             style="fill:#000080;fill-opacity:1;fill-rule:nonzero;stroke:none"
             id="path183" />
        </g>
        <g
           id="g185"
           transform="translate(471.7986,138.8106)"
           style="fill:#000080;fill-opacity:1">
          <path
             d="M 0,0 C -0.12,0 -0.21,0.031 -0.21,0.195 C -0.21,0.331 -0.105,0.406 0.135,1.11 C 0.345,1.725 0.495,2.22 0.57,3 L 0.6,3.315 C 0.615,3.42 0.69,3.54 0.825,3.54 L 2.28,3.54 C 2.4,3.54 2.505,3.495 2.505,3.315 L 2.475,3.045 C 2.355,1.77 1.425,0 1.02,0"
             style="fill:#000080;fill-opacity:1;fill-rule:nonzero;stroke:none"
             id="path187" />
        </g>
        <g
           id="g189"
           transform="translate(480.549,139.9848)"
           style="fill:#000080;fill-opacity:1">
          <path
             d="M 0,0 C 0.27,0.787 0.461,1.344 0.615,1.997 L 0.653,1.997 C 0.711,1.114 0.941,-0.077 1.21,-1.709 L 1.479,-3.36 L -1.228,-3.36 L 0,0 z M -5.375,-7.853 C -5.453,-8.026 -5.567,-8.236 -5.567,-8.409 C -5.567,-8.563 -5.414,-8.659 -5.26,-8.659 L -3.34,-8.659 C -3.167,-8.659 -3.053,-8.544 -3.014,-8.429 L -1.862,-5.28 L 1.786,-5.28 L 2.439,-8.409 C 2.458,-8.544 2.458,-8.659 2.727,-8.659 L 5.012,-8.659 C 5.242,-8.659 5.377,-8.582 5.377,-8.429 C 5.377,-8.294 5.299,-8.064 5.261,-7.891 L 2.515,3.188 C 2.381,3.725 2.247,3.821 1.729,3.821 L -0.154,3.821 C -0.575,3.821 -0.71,3.687 -0.902,3.206"
             style="fill:#000080;fill-opacity:1;fill-rule:nonzero;stroke:none"
             id="path191" />
        </g>
        <g
           id="g193"
           transform="translate(486.5362,140.7606)"
           style="fill:#000080;fill-opacity:1">
          <path
             d="M 0,0 C 0,0.225 0.119,0.315 0.255,0.315 L 1.905,0.315 C 2.025,0.315 2.16,0.21 2.19,0.09 L 3.27,-4.844 C 3.494,-5.865 3.63,-6.765 3.69,-7.5 L 3.719,-7.5 C 3.84,-7.05 4.2,-5.895 4.455,-5.25 L 6.54,0.06 C 6.585,0.195 6.705,0.315 6.825,0.315 L 8.31,0.315 C 8.415,0.315 8.535,0.225 8.535,0.12 L 4.965,-8.7 C 4.77,-9.165 4.695,-9.435 4.23,-9.435 L 2.805,-9.435 C 2.369,-9.435 2.325,-9.225 2.19,-8.7"
             style="fill:#000080;fill-opacity:1;fill-rule:nonzero;stroke:none"
             id="path195" />
        </g>
        <g
           id="g197"
           transform="translate(496.4807,140.7911)"
           style="fill:#000080;fill-opacity:1">
          <path
             d="M 0,0 C 0,0.194 0.09,0.285 0.285,0.285 L 1.875,0.285 C 2.1,0.285 2.1,0.165 2.1,0 L 1.62,-9.181 C 1.62,-9.36 1.545,-9.465 1.365,-9.465 L -0.225,-9.465 C -0.48,-9.465 -0.48,-9.331 -0.48,-9.181"
             style="fill:#000080;fill-opacity:1;fill-rule:nonzero;stroke:none"
             id="path199" />
        </g>
        <g
           id="g201"
           transform="translate(503.9209,138.0911)"
           style="fill:#000080;fill-opacity:1">
          <path
             d="M 0,0 C 0.21,0.615 0.36,1.05 0.48,1.56 L 0.51,1.56 C 0.555,0.87 0.735,-0.06 0.945,-1.335 L 1.155,-2.625 L -0.96,-2.625 L 0,0 z M -4.2,-6.135 C -4.26,-6.27 -4.35,-6.435 -4.35,-6.57 C -4.35,-6.69 -4.23,-6.765 -4.11,-6.765 L -2.61,-6.765 C -2.475,-6.765 -2.385,-6.675 -2.355,-6.585 L -1.455,-4.125 L 1.395,-4.125 L 1.905,-6.57 C 1.92,-6.675 1.92,-6.765 2.13,-6.765 L 3.915,-6.765 C 4.094,-6.765 4.2,-6.705 4.2,-6.585 C 4.2,-6.48 4.14,-6.3 4.11,-6.165 L 1.965,2.49 C 1.86,2.91 1.755,2.985 1.35,2.985 L -0.12,2.985 C -0.45,2.985 -0.555,2.88 -0.705,2.505"
             style="fill:#000080;fill-opacity:1;fill-rule:nonzero;stroke:none"
             id="path203" />
        </g>
        <g
           id="g205"
           transform="translate(510.7014,139.5009)"
           style="fill:#000080;fill-opacity:1">
          <path
             d="M 0,0 L -2.73,0 C -2.985,0 -3,0.12 -3,0.225 L -2.94,1.29 C -2.94,1.485 -2.835,1.575 -2.656,1.575 L 5.01,1.575 C 5.279,1.575 5.294,1.455 5.294,1.29 L 5.235,0.3 C 5.235,0.105 5.129,0 4.919,0 L 2.1,0 L 1.679,-7.89 C 1.679,-8.07 1.59,-8.175 1.41,-8.175 L -0.15,-8.175 C -0.39,-8.175 -0.421,-8.055 -0.421,-7.89"
             style="fill:#000080;fill-opacity:1;fill-rule:nonzero;stroke:none"
             id="path207" />
        </g>
        <g
           id="g209"
           transform="translate(517.0612,140.7911)"
           style="fill:#000080;fill-opacity:1">
          <path
             d="M 0,0 C 0,0.194 0.09,0.285 0.285,0.285 L 1.875,0.285 C 2.1,0.285 2.1,0.165 2.1,0 L 1.619,-9.181 C 1.619,-9.36 1.544,-9.465 1.365,-9.465 L -0.225,-9.465 C -0.48,-9.465 -0.48,-9.331 -0.48,-9.181"
             style="fill:#000080;fill-opacity:1;fill-rule:nonzero;stroke:none"
             id="path211" />
        </g>
        <g
           id="g213"
           transform="translate(523.0307,135.7057)"
           style="fill:#000080;fill-opacity:1">
          <path
             d="M 0,0 C 0,2.76 0.946,4.02 2.281,4.02 C 3.585,4.02 4.096,2.865 4.096,1.005 C 4.096,-1.74 3.135,-3.03 1.815,-3.03 C 0.48,-3.03 0,-1.815 0,0 z M 1.68,-4.53 C 4.171,-4.53 6.346,-2.895 6.346,1.05 C 6.346,4.155 4.755,5.52 2.385,5.52 C -0.06,5.52 -2.25,3.81 -2.25,-0.135 C -2.25,-3.18 -0.719,-4.53 1.68,-4.53"
             style="fill:#000080;fill-opacity:1;fill-rule:nonzero;stroke:none"
             id="path215" />
        </g>
        <g
           id="g217"
           transform="translate(531.3862,140.7606)"
           style="fill:#000080;fill-opacity:1">
          <path
             d="M 0,0 C 0,0.195 0.104,0.315 0.315,0.315 L 2.34,0.315 C 2.475,0.315 2.625,0.195 2.685,0.06 L 5.235,-5.49 C 5.445,-5.969 5.76,-6.63 5.895,-7.215 L 5.925,-7.215 L 6.3,-0.015 C 6.3,0.21 6.39,0.315 6.63,0.315 L 7.8,0.315 C 8.085,0.315 8.1,0.195 8.1,0 L 7.62,-9.15 C 7.62,-9.33 7.53,-9.435 7.29,-9.435 L 5.25,-9.435 C 5.1,-9.435 4.95,-9.3 4.89,-9.165 L 2.37,-3.495 C 2.01,-2.745 1.815,-2.25 1.71,-1.755 L 1.68,-1.755 L 1.32,-9.15 C 1.32,-9.33 1.215,-9.435 1.035,-9.435 L -0.21,-9.435 C -0.465,-9.435 -0.48,-9.3 -0.48,-9.15"
             style="fill:#000080;fill-opacity:1;fill-rule:nonzero;stroke:none"
             id="path219" />
        </g>
        <g
           id="g221"
           transform="translate(554.9197,132.0746)"
           style="fill:#000080;fill-opacity:1">
          <path
             d="M 0,0 C 0,-0.633 -1.613,-0.941 -3.283,-0.941 C -7.085,-0.941 -9.197,1.095 -9.197,5.223 C -9.197,9.523 -6.01,11.923 -2.362,11.923 C -1.114,11.923 0.575,11.674 0.575,11.117 L 0.499,9.581 C 0.499,9.408 0.441,9.197 0.288,9.197 C -0.192,9.197 -0.826,9.811 -2.362,9.811 C -4.819,9.811 -6.317,7.795 -6.317,5.184 C -6.317,2.534 -5.05,1.267 -2.938,1.267 C -1.344,1.267 -0.403,1.901 -0.153,1.901 C 0,1.901 0.076,1.747 0.076,1.613"
             style="fill:#000080;fill-opacity:1;fill-rule:nonzero;stroke:none"
             id="path223" />
        </g>
        <g
           id="g225"
           transform="translate(557.5107,140.7911)"
           style="fill:#000080;fill-opacity:1">
          <path
             d="M 0,0 C 0,0.194 0.09,0.285 0.285,0.285 L 1.875,0.285 C 2.1,0.285 2.1,0.165 2.1,0 L 1.62,-9.181 C 1.62,-9.36 1.545,-9.465 1.365,-9.465 L -0.225,-9.465 C -0.48,-9.465 -0.48,-9.331 -0.48,-9.181"
             style="fill:#000080;fill-opacity:1;fill-rule:nonzero;stroke:none"
             id="path227" />
        </g>
        <g
           id="g229"
           transform="translate(561.3809,140.7606)"
           style="fill:#000080;fill-opacity:1">
          <path
             d="M 0,0 C 0,0.225 0.12,0.315 0.255,0.315 L 1.905,0.315 C 2.025,0.315 2.16,0.21 2.19,0.09 L 3.27,-4.844 C 3.495,-5.865 3.63,-6.765 3.69,-7.5 L 3.72,-7.5 C 3.84,-7.05 4.2,-5.895 4.455,-5.25 L 6.54,0.06 C 6.585,0.195 6.705,0.315 6.825,0.315 L 8.31,0.315 C 8.415,0.315 8.535,0.225 8.535,0.12 L 4.965,-8.7 C 4.77,-9.165 4.695,-9.435 4.23,-9.435 L 2.805,-9.435 C 2.37,-9.435 2.325,-9.225 2.19,-8.7"
             style="fill:#000080;fill-opacity:1;fill-rule:nonzero;stroke:none"
             id="path231" />
        </g>
        <g
           id="g233"
           transform="translate(571.326,140.7911)"
           style="fill:#000080;fill-opacity:1">
          <path
             d="M 0,0 C 0,0.194 0.09,0.285 0.285,0.285 L 1.875,0.285 C 2.1,0.285 2.1,0.165 2.1,0 L 1.62,-9.181 C 1.62,-9.36 1.544,-9.465 1.365,-9.465 L -0.225,-9.465 C -0.48,-9.465 -0.48,-9.331 -0.48,-9.181"
             style="fill:#000080;fill-opacity:1;fill-rule:nonzero;stroke:none"
             id="path235" />
        </g>
        <g
           id="g237"
           transform="translate(575.7955,140.7606)"
           style="fill:#000080;fill-opacity:1">
          <path
             d="M 0,0 C 0,0.21 0.09,0.315 0.3,0.315 L 1.875,0.315 C 2.085,0.315 2.1,0.195 2.1,0.031 L 1.68,-7.86 L 5.235,-7.86 C 5.505,-7.86 5.52,-7.98 5.52,-8.145 L 5.46,-9.15 C 5.46,-9.33 5.355,-9.435 5.145,-9.435 L -0.21,-9.435 C -0.465,-9.435 -0.48,-9.3 -0.48,-9.15"
             style="fill:#000080;fill-opacity:1;fill-rule:nonzero;stroke:none"
             id="path239" />
        </g>
        <g
           id="g241"
           transform="translate(583.1157,140.7911)"
           style="fill:#000080;fill-opacity:1">
          <path
             d="M 0,0 C 0,0.194 0.09,0.285 0.3,0.285 L 5.565,0.285 C 5.835,0.285 5.85,0.15 5.85,-0.031 L 5.79,-0.99 C 5.775,-1.185 5.7,-1.29 5.475,-1.29 L 2.025,-1.29 L 1.905,-3.51 L 4.545,-3.51 C 4.8,-3.51 4.83,-3.631 4.83,-3.795 L 4.77,-4.8 C 4.77,-4.995 4.68,-5.085 4.47,-5.085 L 1.815,-5.085 L 1.68,-7.89 L 5.13,-7.89 C 5.385,-7.89 5.415,-7.981 5.415,-8.175 L 5.37,-9.181 C 5.37,-9.36 5.265,-9.465 5.055,-9.465 L -0.21,-9.465 C -0.465,-9.465 -0.48,-9.331 -0.48,-9.181"
             style="fill:#000080;fill-opacity:1;fill-rule:nonzero;stroke:none"
             id="path243" />
        </g>
      </g>
    </g>
  </g>
</svg>
