<svg xmlns="http://www.w3.org/2000/svg" width="400" height="192" fill-rule="evenodd" stroke-width="28.2" version="1.2" viewBox="0 0 5291.7 2540" preserveAspectRatio="xMidYMid" stroke-linejoin="round">
  <defs class="ClipPathGroup">
    <clipPath id="a">
      <path d="M0 0h11590v5570H0z"/>
    </clipPath>
  </defs>
  <g class="SlideGroup Slide" clip-path="url(#a)" transform="scale(.4567 .45618)">
    <g class="Page">
      <path fill="#e42618" d="M589 4500H0V2h1178v4498zM2816 2l760 2772h13V2h1101v4498H3399l-785-2778h-13v2778H1500V2z" class="com.sun.star.drawing.PolyPolygonShape"/>
      <path fill="#e42618" d="M6816 1236c0-129-28-241-83-331-55-92-139-138-253-138-126 0-219 40-278 119-60 80-89 167-89 265 0 142 48 255 142 338 96 83 215 155 358 216 144 61 297 123 462 185 165 64 319 146 462 248 144 101 263 234 358 398s142 379 142 643c0 463-137 799-411 1008-275 210-671 313-1190 313-245 0-461-19-649-57-188-39-346-106-475-202-128-95-227-219-294-374s-101-345-101-572v-153h1139v103c0 188 36 318 108 394 72 75 164 113 278 113 123 0 216-42 282-123 65-80 98-180 98-297 0-143-46-256-136-339-91-83-205-154-342-213-137-58-286-118-446-179-161-61-309-140-447-238-137-98-251-225-341-384-91-158-136-365-136-621 0-442 122-779 367-1011C5586 116 5957 0 6455 0c514 0 887 106 1117 320 230 213 345 553 345 1020H6816z" class="com.sun.star.drawing.ClosedBezierShape"/>
      <path fill="#e42618" d="M10485 2l1102 4499h-1253l-121-788h-936l-121 788H7922L9004 2zm-746 920l-323 1909h658L9751 922z" class="com.sun.star.drawing.PolyPolygonShape"/>
      <path fill="#4f4d50" d="M10789 0h798v3378z" class="com.sun.star.drawing.PolyPolygonShape"/>
      <path fill="#4f4d50" d="M7373 4906v-161h-509v161h153v662h193v-662zm613 249l-1-40-2-57-2-69-5-31-6-28-8-27-9-24-10-22-12-20-6-9-7-9-8-8-7-8-9-7-8-6-10-6-10-6-10-5-11-5-11-5-12-3-25-7-27-4-29-3-31-1-31 1-28 3-27 5-26 6-11 4-12 5-11 5-10 6-10 6-10 6-9 7-9 8-7 6-6 7-6 7-6 7-11 17-9 18-8 20-8 22-5 23-5 25-4 36-4 44-1 54-1 63 1 63 1 53 4 45 2 19 2 16 5 25 7 23 7 21 9 20 9 18 11 17 12 16 12 13 8 8 9 7 9 6 10 6 10 6 10 5 11 5 11 4 24 6 26 5 27 3 29 1 29-1 26-2 26-3 23-4 22-6 20-7 18-9 9-5 8-5 8-6 8-6 8-7 7-7 7-7 7-8 12-17 10-19 10-20 7-22 7-24 4-26 2-35 4-68 2-57zm-196 17l-1 94v27l-2 23-2 20-1 9-2 8-2 8-2 8-2 7-3 6-4 7-3 5-4 5-4 4-5 4-5 4-5 3-5 2-6 2-6 1-7 1h-13l-7-1h-6l-6-2-5-1-6-2-5-2-4-3-5-3-4-3-4-4-4-4-3-4-3-5-3-5-2-5-2-6-2-8-2-8-2-9-1-10v-10l-1-24 1-117v-127l1-55 3-34 5-18 5-16 4-7 3-6 3-6 4-5 4-4 4-4 5-4 5-2 5-2 5-2 5-1h17l11 2h5l4 2 5 1 4 1 5 2 3 2 4 2 4 3 3 2 3 3 3 3 3 3 3 4 3 4 2 5 3 5 2 5 2 6 4 12 2 14 2 15 2 16v93zm831 44v-471h-190v116l-2 376-3 100-2 29-1 8v3l-1 2-2 5-3 4-3 4-3 4-3 3-4 3-4 3-4 3-4 2-4 2-5 1-5 2-5 1h-6l-5 1h-6l-6-1-6-1-6-1-5-3-4-3-5-4-4-5-4-5-3-7-4-6-3-8-2-8-4-19-3-22v-579h-194l3 443 3 126 2 40 3 24 5 22 6 21 6 19 8 17 9 17 10 14 11 14 6 6 6 6 7 6 9 6 9 6 9 5 9 5 10 4 22 8 23 6 25 4 27 2 29 1 29-1 26-2 25-3 23-5 21-6 19-8 9-5 9-4 7-5 8-6 13-11 13-13 11-13 9-15 9-17 7-17 6-19 5-20 3-15 2-17 4-41 2-50zm556 352v-166h-231v-657h-191v823zm621-413l-1-40-2-57-2-69-5-31-6-28-8-27-9-24-10-22-12-20-6-9-7-9-8-8-7-8-9-7-8-6-10-6-10-6-10-5-11-5-11-5-12-3-25-7-27-4-29-3-31-1-31 1-28 3-27 5-26 6-11 4-12 5-11 5-10 6-10 6-10 6-9 7-9 8-7 6-6 7-6 7-6 7-11 17-9 18-8 20-8 22-5 23-5 25-4 36-4 44-1 54-1 63 1 63 1 53 4 45 2 19 2 16 5 25 7 23 7 21 9 20 9 18 11 17 12 16 12 13 8 8 9 7 9 6 10 6 10 6 10 5 11 5 11 4 24 6 26 5 27 3 29 1 29-1 26-2 26-3 23-4 22-6 20-7 18-9 9-5 8-5 8-6 8-6 8-7 7-7 7-7 7-8 12-17 10-19 10-20 7-22 7-24 4-26 2-35 4-68 2-57zm-196 17l-1 94v27l-2 23-2 20-1 9-2 8-2 8-2 8-2 7-3 6-4 7-3 5-4 5-4 4-5 4-5 4-5 3-5 2-6 2-6 1-7 1h-13l-7-1h-6l-6-2-5-1-6-2-5-2-4-3-5-3-4-3-4-4-4-4-3-4-3-5-3-5-2-5-2-6-2-8-2-8-2-9-1-10v-10l-1-24 1-117v-127l1-55 3-34 5-18 5-16 4-7 3-6 3-6 4-5 4-4 4-4 5-4 5-2 5-2 5-2 5-1h17l11 2h5l4 2 5 1 4 1 5 2 3 2 4 2 4 3 3 2 3 3 3 3 3 3 3 4 3 4 2 5 3 5 2 5 2 6 4 12 2 14 2 15 2 16v93zm831 44v-471h-190v116l-2 376-3 100-2 29-1 8v3l-1 2-2 5-3 4-3 4-3 4-3 3-4 3-4 3-4 3-4 2-4 2-5 1-5 2-5 1h-6l-5 1h-6l-6-1-6-1-6-1-5-3-4-3-5-4-4-5-4-5-3-7-4-6-3-8-2-8-4-19-3-22v-579h-194l3 443 3 126 2 40 3 24 5 22 6 21 6 19 8 17 9 17 10 14 11 14 6 6 6 6 7 6 9 6 9 6 9 5 9 5 10 4 22 8 23 6 25 4 27 2 29 1 29-1 26-2 25-3 23-5 21-6 19-8 9-5 9-4 7-5 8-6 13-11 13-13 11-13 9-15 9-17 7-17 6-19 5-20 3-15 2-17 4-41 2-50zm603 106v-11l-1-11-1-11-2-12-2-12-2-12-6-24-6-14-5-13-6-11-6-10-7-10-7-8-3-3-4-4-4-3-4-2-195-127-5-5-5-4-4-5-4-5-4-5-3-5-4-5-3-5-3-5-2-5-2-5-2-6-1-5-1-6-1-6v-11l1-3v-2l1-3 1-3 1-2 1-3 3-5 3-5 4-5 5-5 2-3 2-2 3-2 2-2 3-2 3-1 3-2 2-1 4-1 3-1 3-1 3-1 7-1h12l4 1 4 1 3 1 4 1 3 2 3 2 3 3 3 3 3 3 3 3 2 4 3 4 2 5 4 10 2 8 2 8 2 9 1 9 1 9 1 10 1 19h173l-5-70-7-41-7-18-7-17-9-15-5-7-5-7-6-7-6-6-6-6-7-5-6-5-8-5-7-5-8-4-16-7-17-7-18-5-19-5-20-3-21-3-22-1-22-1-23 1-23 3-21 5-10 3-11 3-9 4-10 5-9 5-9 6-18 12-17 14-7 8-8 8-6 9-7 9-6 9-5 9-5 10-4 10-7 21-5 23-3 24-1 25 1 25 4 25 3 12 3 11 4 11 5 11 5 11 6 11 6 10 7 10 8 10 8 9 19 19 1 1 2 2 8 5 28 19 104 66 19 13 16 12 13 12 6 6 5 6 5 5 4 6 3 6 3 6 2 5 2 6 1 5v17l-1 10-1 10-2 9-3 8-3 8-2 3-1 3-2 3-2 3-3 3-3 3-3 2-3 2-3 3-3 1-4 2-3 2-4 1-4 1-4 1-4 1-8 1h-19l-5-1-4-2-4-2-4-2-4-2-3-3-4-4-3-4-3-4-2-4-3-5-2-6-2-6-2-6v-1l-1-1-1-3v-4l-1-4v-4l-1-5v-11l-1-58h-177v15l-1 74v10l1 10 2 10 2 11 3 8 2 7 2 6 2 6 4 8 4 8 5 8 5 8 6 8 6 8 7 8 7 8 7 8 8 8 9 6 9 7 10 5 10 6 11 5 11 4 11 4 13 3 26 5 28 3 30 1 31-1 28-3 27-5 12-4 12-3 12-5 11-5 11-5 10-6 10-6 9-7 9-8 9-8 7-8 8-8 6-10 7-9 6-10 5-10 5-11 4-11 7-23 5-25 3-27zm551 246v-166h-257v-180h235v-167h-235v-149h257v-161h-448v823z" class="Group com.sun.star.drawing.PolyPolygonShape"/>
    </g>
  </g>
</svg>
