<?xml version="1.0" encoding="UTF-8"?><svg id="Calque_1" xmlns="http://www.w3.org/2000/svg" viewBox="0 0 612.7 251.58"><defs><style>.cls-1{fill:#1d1d1b;}</style></defs><g><path class="cls-1" d="m283.2,68.49v-22h6.85v22.48c0,9.45-5.33,14.6-15.21,14.6s-15.7-5.09-15.7-14.6v-22.48h6.91v21.81c0,5.45,2.06,9.15,8.79,9.15s8.36-3.45,8.36-8.97Z"/><path class="cls-1" d="m303.56,82.86h-6.48v-28.48h6.36v7.52h.55c1.58-5.27,5.21-8.24,10-8.24,5.94,0,8.79,4,8.79,10.18v19.03h-6.48v-17.33c0-3.45-1.51-6-5.45-6-4.36,0-7.27,2.91-7.27,7.21v16.12Z"/><path class="cls-1" d="m329.37,49.53v-5.27h7.09v5.27h-7.09Zm.24,33.33v-28.48h6.54v28.48h-6.54Z"/><path class="cls-1" d="m350.22,82.86l-10.55-28.48h7.09l3.51,11.03c1.27,4.06,2.61,8,3.7,11.88h1.21c1.09-3.88,2.42-7.94,3.7-11.88l3.51-11.03h6.91l-10.48,28.48h-8.6Z"/><path class="cls-1" d="m370.76,68.98c0-9.64,5.45-15.33,14.36-15.33s12.79,5.21,12.79,13.03c0,1.09,0,2.36-.12,3.82h-20.54c.48,5.15,3.09,7.76,7.94,7.76,4.55,0,6.12-2.18,6.91-4.91l5.57,1.57c-1.33,5.15-4.91,8.67-12.54,8.67-8.73,0-14.36-5.09-14.36-14.6Zm6.54-2.85h14.6c-.24-4.91-2.42-7.45-6.97-7.45s-7.03,2.36-7.63,7.45Z"/><path class="cls-1" d="m403.18,82.86v-28.48h6.18v8.55l.55.06c1.64-6.91,4.3-8.91,8.42-8.91h1.03v7.33h-1.58c-6,0-8.12,2.12-8.12,7.94v13.51h-6.48Z"/><path class="cls-1" d="m421.79,74.43l5.88-1.21c.91,3.45,2.91,5.64,7.51,5.64,3.45,0,5.27-1.22,5.27-3.64,0-2.24-1.57-3.33-7.21-4.36-7.58-1.51-10.24-4.06-10.24-8.79,0-5.15,3.76-8.42,11.33-8.42s10.48,3.21,11.63,8.24l-5.88,1.27c-.79-3.52-2.49-4.85-5.88-4.85s-5.03,1.27-5.03,3.39c0,2,1.21,3.39,6.6,4.36,8.42,1.57,10.97,4.42,10.97,8.91,0,5.27-3.51,8.66-11.69,8.66-9.21,0-12.24-3.76-13.27-9.21Z"/><path class="cls-1" d="m451.9,49.53v-5.27h7.09v5.27h-7.09Zm.24,33.33v-28.48h6.54v28.48h-6.54Z"/><path class="cls-1" d="m467.54,59.65h-4v-5.27h4v-7.69h6.54v7.69h8.36v5.27h-8.36v13.63c0,2.79,1.03,4.24,3.88,4.24,1.45,0,2.73-.3,4.12-.73l.79,5.82c-2.12.67-3.58,1.03-6.42,1.03-6.24,0-8.91-4.12-8.91-9.45v-14.54Z"/><path class="cls-1" d="m485.84,68.98c0-9.64,5.46-15.33,14.36-15.33s12.78,5.21,12.78,13.03c0,1.09,0,2.36-.12,3.82h-20.54c.48,5.15,3.09,7.76,7.94,7.76,4.54,0,6.12-2.18,6.91-4.91l5.57,1.57c-1.33,5.15-4.91,8.67-12.54,8.67-8.73,0-14.36-5.09-14.36-14.6Zm6.54-2.85h14.6c-.24-4.91-2.42-7.45-6.97-7.45s-7.03,2.36-7.64,7.45Zm1.45-17.88l14.18-8.18,2.42,4.67-14.97,6.72-1.64-3.21Z"/><path class="cls-1" d="m277.99,126.92h-.42c-1.45,4.91-4.85,8.3-9.94,8.3-6.54,0-10.36-5.27-10.36-14.9s3.88-15.15,10.55-15.09c5.15-.06,8.3,3.21,9.76,8.18h.42v-17.87h6.48v38.9h-6.48v-7.51Zm0-5.46v-2.18c0-4.91-2.85-8.18-7.27-8.18-4.73,0-7.03,2.97-7.03,9.21s2.18,9.09,7.03,9.09c4.36,0,7.27-3.09,7.27-7.94Z"/><path class="cls-1" d="m289.62,120.55c0-9.64,5.46-15.33,14.36-15.33s12.78,5.21,12.78,13.03c0,1.09,0,2.36-.12,3.82h-20.54c.48,5.15,3.09,7.76,7.94,7.76,4.54,0,6.12-2.18,6.91-4.91l5.57,1.57c-1.33,5.15-4.91,8.67-12.54,8.67-8.73,0-14.36-5.09-14.36-14.6Zm6.54-2.85h14.6c-.24-4.91-2.42-7.45-6.97-7.45s-7.03,2.36-7.64,7.45Z"/><path class="cls-1" d="m330.95,98.07h29.33v6.36h-11.21v30h-6.91v-30h-11.21v-6.36Z"/><path class="cls-1" d="m360.46,120.13c0-9.39,5.63-14.9,14.48-14.9s14.36,5.51,14.36,14.9-5.33,15.09-14.36,15.09-14.48-5.75-14.48-15.09Zm6.54-.06c0,5.88,2.42,9.51,7.88,9.51s7.94-3.64,7.94-9.51-2.67-9.33-7.94-9.33-7.88,3.45-7.88,9.33Z"/><path class="cls-1" d="m413.61,126.92h-.61c-1.58,5.27-5.21,8.3-9.94,8.3-6,0-8.85-4.06-8.85-10.24v-19.03h6.54v17.33c0,3.45,1.52,6,5.39,6,4.42,0,7.27-2.91,7.27-7.21v-16.12h6.54v28.48h-6.36v-7.51Z"/><path class="cls-1" d="m433.48,134.43h-6.54v-38.9h6.54v38.9Z"/><path class="cls-1" d="m438.82,120.13c0-9.39,5.63-14.9,14.48-14.9s14.36,5.51,14.36,14.9-5.33,15.09-14.36,15.09-14.48-5.75-14.48-15.09Zm6.54-.06c0,5.88,2.42,9.51,7.88,9.51s7.94-3.64,7.94-9.51-2.67-9.33-7.94-9.33-7.88,3.45-7.88,9.33Z"/><path class="cls-1" d="m491.96,126.92h-.61c-1.58,5.27-5.21,8.3-9.94,8.3-6,0-8.85-4.06-8.85-10.24v-19.03h6.54v17.33c0,3.45,1.52,6,5.39,6,4.42,0,7.27-2.91,7.27-7.21v-16.12h6.54v28.48h-6.36v-7.51Z"/><path class="cls-1" d="m503.11,126.01l5.88-1.21c.91,3.45,2.91,5.64,7.51,5.64,3.45,0,5.27-1.22,5.27-3.64,0-2.24-1.58-3.33-7.21-4.36-7.57-1.51-10.24-4.06-10.24-8.79,0-5.15,3.76-8.42,11.33-8.42s10.48,3.21,11.63,8.24l-5.88,1.27c-.79-3.52-2.48-4.85-5.88-4.85s-5.03,1.27-5.03,3.39c0,2,1.21,3.39,6.61,4.36,8.42,1.57,10.97,4.42,10.97,8.91,0,5.27-3.52,8.66-11.7,8.66-9.21,0-12.24-3.76-13.27-9.21Z"/><path class="cls-1" d="m531.47,120.55c0-9.64,5.46-15.33,14.36-15.33s12.78,5.21,12.78,13.03c0,1.09,0,2.36-.12,3.82h-20.54c.48,5.15,3.09,7.76,7.94,7.76,4.54,0,6.12-2.18,6.91-4.91l5.57,1.57c-1.33,5.15-4.91,8.67-12.54,8.67-8.73,0-14.36-5.09-14.36-14.6Zm6.54-2.85h14.6c-.24-4.91-2.42-7.45-6.97-7.45s-7.03,2.36-7.64,7.45Z"/></g><g><path class="cls-1" d="m124.45,154.14l.36-107.69h-45.74l-.34,102.2c-.08,23.86,6.96,43.14,24.44,53.09,9.87,5.37,24.06,8.2,40.81,8.25,12.42.04,28.45-4.76,30.72-6.28-19.33,2.42-50.42,1.7-50.25-49.58Z"/><path class="cls-1" d="m177.28,46.46v7.69h18.44v45.84h0c9.53.03,17.25-7.68,17.25-17.21v-28.63h18.84v-7.69h-54.53Z"/><path class="cls-1" d="m212.97,145.56c-.12,35.5-13.39,50.65-38.27,58.16,15.29-7.39,20.94-28.08,21.02-53.22v-16.06c.03-8.48,5.24-16.05,13.18-19.01l4.07-1.51v31.63Z"/></g></svg>